<?xml version="1.0" encoding="utf-8" standalone="no"?>
<!DOCTYPE svg PUBLIC "-//W3C//DTD SVG 1.1//EN"
  "http://www.w3.org/Graphics/SVG/1.1/DTD/svg11.dtd">
<svg xmlns:xlink="http://www.w3.org/1999/xlink" width="460.8pt" height="345.6pt" viewBox="0 0 460.8 345.6" xmlns="http://www.w3.org/2000/svg" version="1.1">
 <metadata>
  <rdf:RDF xmlns:dc="http://purl.org/dc/elements/1.1/" xmlns:cc="http://creativecommons.org/ns#" xmlns:rdf="http://www.w3.org/1999/02/22-rdf-syntax-ns#">
   <cc:Work>
    <dc:type rdf:resource="http://purl.org/dc/dcmitype/StillImage"/>
    <dc:date>2023-11-14T13:54:04.708776</dc:date>
    <dc:format>image/svg+xml</dc:format>
    <dc:creator>
     <cc:Agent>
      <dc:title>Matplotlib v3.6.2, https://matplotlib.org/</dc:title>
     </cc:Agent>
    </dc:creator>
   </cc:Work>
  </rdf:RDF>
 </metadata>
 <defs>
  <style type="text/css">*{stroke-linejoin: round; stroke-linecap: butt}</style>
 </defs>
 <g id="figure_1">
  <g id="patch_1">
   <path d="M 0 345.6 
L 460.8 345.6 
L 460.8 0 
L 0 0 
z
" style="fill: #ffffff"/>
  </g>
  <g id="axes_1">
   <g id="patch_2">
    <path d="M 57.6 307.584 
L 414.72 307.584 
L 414.72 41.472 
L 57.6 41.472 
z
" style="fill: #ffffff"/>
   </g>
   <g id="matplotlib.axis_1">
    <g id="xtick_1">
     <g id="line2d_1">
      <defs>
       <path id="m7ea84f4645" d="M 0 0 
L 0 3.5 
" style="stroke: #262626; stroke-width: 0.8"/>
      </defs>
      <g>
       <use xlink:href="#m7ea84f4645" x="65.508252" y="307.584" style="fill: #262626; stroke: #262626; stroke-width: 0.8"/>
      </g>
     </g>
     <g id="text_1">
      <!-- 1980 -->
      <g style="fill: #262626" transform="translate(49.937627 324.604938) scale(0.14 -0.14)">
       <defs>
        <path id="ArialMT-31" d="M 2384 0 
L 1822 0 
L 1822 3584 
Q 1619 3391 1289 3197 
Q 959 3003 697 2906 
L 697 3450 
Q 1169 3672 1522 3987 
Q 1875 4303 2022 4600 
L 2384 4600 
L 2384 0 
z
" transform="scale(0.015625)"/>
        <path id="ArialMT-39" d="M 350 1059 
L 891 1109 
Q 959 728 1153 556 
Q 1347 384 1650 384 
Q 1909 384 2104 503 
Q 2300 622 2425 820 
Q 2550 1019 2634 1356 
Q 2719 1694 2719 2044 
Q 2719 2081 2716 2156 
Q 2547 1888 2255 1720 
Q 1963 1553 1622 1553 
Q 1053 1553 659 1965 
Q 266 2378 266 3053 
Q 266 3750 677 4175 
Q 1088 4600 1706 4600 
Q 2153 4600 2523 4359 
Q 2894 4119 3086 3673 
Q 3278 3228 3278 2384 
Q 3278 1506 3087 986 
Q 2897 466 2520 194 
Q 2144 -78 1638 -78 
Q 1100 -78 759 220 
Q 419 519 350 1059 
z
M 2653 3081 
Q 2653 3566 2395 3850 
Q 2138 4134 1775 4134 
Q 1400 4134 1122 3828 
Q 844 3522 844 3034 
Q 844 2597 1108 2323 
Q 1372 2050 1759 2050 
Q 2150 2050 2401 2323 
Q 2653 2597 2653 3081 
z
" transform="scale(0.015625)"/>
        <path id="ArialMT-38" d="M 1131 2484 
Q 781 2613 612 2850 
Q 444 3088 444 3419 
Q 444 3919 803 4259 
Q 1163 4600 1759 4600 
Q 2359 4600 2725 4251 
Q 3091 3903 3091 3403 
Q 3091 3084 2923 2848 
Q 2756 2613 2416 2484 
Q 2838 2347 3058 2040 
Q 3278 1734 3278 1309 
Q 3278 722 2862 322 
Q 2447 -78 1769 -78 
Q 1091 -78 675 323 
Q 259 725 259 1325 
Q 259 1772 486 2073 
Q 713 2375 1131 2484 
z
M 1019 3438 
Q 1019 3113 1228 2906 
Q 1438 2700 1772 2700 
Q 2097 2700 2305 2904 
Q 2513 3109 2513 3406 
Q 2513 3716 2298 3927 
Q 2084 4138 1766 4138 
Q 1444 4138 1231 3931 
Q 1019 3725 1019 3438 
z
M 838 1322 
Q 838 1081 952 856 
Q 1066 631 1291 507 
Q 1516 384 1775 384 
Q 2178 384 2440 643 
Q 2703 903 2703 1303 
Q 2703 1709 2433 1975 
Q 2163 2241 1756 2241 
Q 1359 2241 1098 1978 
Q 838 1716 838 1322 
z
" transform="scale(0.015625)"/>
        <path id="ArialMT-30" d="M 266 2259 
Q 266 3072 433 3567 
Q 600 4063 929 4331 
Q 1259 4600 1759 4600 
Q 2128 4600 2406 4451 
Q 2684 4303 2865 4023 
Q 3047 3744 3150 3342 
Q 3253 2941 3253 2259 
Q 3253 1453 3087 958 
Q 2922 463 2592 192 
Q 2263 -78 1759 -78 
Q 1097 -78 719 397 
Q 266 969 266 2259 
z
M 844 2259 
Q 844 1131 1108 757 
Q 1372 384 1759 384 
Q 2147 384 2411 759 
Q 2675 1134 2675 2259 
Q 2675 3391 2411 3762 
Q 2147 4134 1753 4134 
Q 1366 4134 1134 3806 
Q 844 3388 844 2259 
z
" transform="scale(0.015625)"/>
       </defs>
       <use xlink:href="#ArialMT-31"/>
       <use xlink:href="#ArialMT-39" x="55.615234"/>
       <use xlink:href="#ArialMT-38" x="111.230469"/>
       <use xlink:href="#ArialMT-30" x="166.845703"/>
      </g>
     </g>
    </g>
    <g id="xtick_2">
     <g id="line2d_2">
      <g>
       <use xlink:href="#m7ea84f4645" x="148.753007" y="307.584" style="fill: #262626; stroke: #262626; stroke-width: 0.8"/>
      </g>
     </g>
     <g id="text_2">
      <!-- 1990 -->
      <g style="fill: #262626" transform="translate(133.182382 324.604938) scale(0.14 -0.14)">
       <use xlink:href="#ArialMT-31"/>
       <use xlink:href="#ArialMT-39" x="55.615234"/>
       <use xlink:href="#ArialMT-39" x="111.230469"/>
       <use xlink:href="#ArialMT-30" x="166.845703"/>
      </g>
     </g>
    </g>
    <g id="xtick_3">
     <g id="line2d_3">
      <g>
       <use xlink:href="#m7ea84f4645" x="231.997762" y="307.584" style="fill: #262626; stroke: #262626; stroke-width: 0.8"/>
      </g>
     </g>
     <g id="text_3">
      <!-- 2000 -->
      <g style="fill: #262626" transform="translate(216.427137 324.604938) scale(0.14 -0.14)">
       <defs>
        <path id="ArialMT-32" d="M 3222 541 
L 3222 0 
L 194 0 
Q 188 203 259 391 
Q 375 700 629 1000 
Q 884 1300 1366 1694 
Q 2113 2306 2375 2664 
Q 2638 3022 2638 3341 
Q 2638 3675 2398 3904 
Q 2159 4134 1775 4134 
Q 1369 4134 1125 3890 
Q 881 3647 878 3216 
L 300 3275 
Q 359 3922 746 4261 
Q 1134 4600 1788 4600 
Q 2447 4600 2831 4234 
Q 3216 3869 3216 3328 
Q 3216 3053 3103 2787 
Q 2991 2522 2730 2228 
Q 2469 1934 1863 1422 
Q 1356 997 1212 845 
Q 1069 694 975 541 
L 3222 541 
z
" transform="scale(0.015625)"/>
       </defs>
       <use xlink:href="#ArialMT-32"/>
       <use xlink:href="#ArialMT-30" x="55.615234"/>
       <use xlink:href="#ArialMT-30" x="111.230469"/>
       <use xlink:href="#ArialMT-30" x="166.845703"/>
      </g>
     </g>
    </g>
    <g id="xtick_4">
     <g id="line2d_4">
      <g>
       <use xlink:href="#m7ea84f4645" x="315.242517" y="307.584" style="fill: #262626; stroke: #262626; stroke-width: 0.8"/>
      </g>
     </g>
     <g id="text_4">
      <!-- 2010 -->
      <g style="fill: #262626" transform="translate(299.671892 324.604938) scale(0.14 -0.14)">
       <use xlink:href="#ArialMT-32"/>
       <use xlink:href="#ArialMT-30" x="55.615234"/>
       <use xlink:href="#ArialMT-31" x="111.230469"/>
       <use xlink:href="#ArialMT-30" x="166.845703"/>
      </g>
     </g>
    </g>
    <g id="xtick_5">
     <g id="line2d_5">
      <g>
       <use xlink:href="#m7ea84f4645" x="398.487273" y="307.584" style="fill: #262626; stroke: #262626; stroke-width: 0.8"/>
      </g>
     </g>
     <g id="text_5">
      <!-- 2020 -->
      <g style="fill: #262626" transform="translate(382.916648 324.604938) scale(0.14 -0.14)">
       <use xlink:href="#ArialMT-32"/>
       <use xlink:href="#ArialMT-30" x="55.615234"/>
       <use xlink:href="#ArialMT-32" x="111.230469"/>
       <use xlink:href="#ArialMT-30" x="166.845703"/>
      </g>
     </g>
    </g>
    <g id="text_6">
     <!-- Año -->
     <g style="fill: #262626" transform="translate(225.652344 342.069) scale(0.14 -0.14)">
      <defs>
       <path id="Dosis-Regular-41" d="M 371 0 
Q 320 0 262 22 
Q 205 45 166 86 
Q 128 128 128 179 
Q 128 205 134 224 
L 1472 4570 
Q 1498 4646 1568 4681 
Q 1638 4717 1722 4717 
Q 1811 4717 1884 4678 
Q 1958 4640 1978 4570 
L 3309 224 
Q 3315 205 3315 186 
Q 3315 134 3276 92 
Q 3238 51 3180 25 
Q 3123 0 3059 0 
Q 3008 0 2963 25 
Q 2918 51 2906 109 
L 2605 1094 
L 838 1094 
L 544 109 
Q 525 51 480 25 
Q 435 0 371 0 
z
M 941 1459 
L 2496 1459 
L 1722 4038 
L 941 1459 
z
" transform="scale(0.015625)"/>
       <path id="Dosis-Regular-f1" d="M 602 0 
Q 518 0 457 51 
Q 397 102 397 166 
L 397 2874 
Q 397 2944 457 2985 
Q 518 3027 602 3027 
Q 685 3027 742 2985 
Q 800 2944 800 2874 
L 800 2579 
Q 902 2765 1120 2915 
Q 1338 3066 1658 3066 
Q 1965 3066 2224 2902 
Q 2483 2739 2636 2470 
Q 2790 2202 2790 1869 
L 2790 166 
Q 2790 83 2726 41 
Q 2662 0 2579 0 
Q 2509 0 2441 41 
Q 2374 83 2374 166 
L 2374 1869 
Q 2374 2074 2265 2259 
Q 2157 2445 1977 2563 
Q 1798 2682 1581 2682 
Q 1389 2682 1213 2582 
Q 1037 2483 925 2304 
Q 813 2125 813 1869 
L 813 166 
Q 813 102 752 51 
Q 691 0 602 0 
z
M 2035 3872 
Q 1862 3872 1734 3929 
Q 1606 3987 1481 4041 
Q 1357 4096 1184 4096 
Q 1050 4096 963 4044 
Q 877 3993 822 3942 
Q 768 3891 710 3891 
Q 672 3891 646 3916 
Q 621 3942 605 3980 
Q 589 4019 589 4051 
Q 589 4140 646 4207 
Q 704 4275 793 4323 
Q 883 4371 982 4393 
Q 1082 4416 1152 4416 
Q 1325 4416 1449 4364 
Q 1574 4313 1702 4255 
Q 1830 4198 1997 4198 
Q 2138 4198 2214 4246 
Q 2291 4294 2339 4339 
Q 2387 4384 2445 4384 
Q 2490 4384 2518 4358 
Q 2547 4332 2560 4300 
Q 2573 4268 2573 4236 
Q 2573 4134 2515 4067 
Q 2458 4000 2371 3955 
Q 2285 3910 2195 3891 
Q 2106 3872 2035 3872 
z
" transform="scale(0.015625)"/>
       <path id="Dosis-Regular-6f" d="M 1498 -45 
Q 1171 -45 896 124 
Q 621 294 451 572 
Q 282 851 282 1171 
L 282 1869 
Q 282 2189 448 2461 
Q 614 2733 889 2899 
Q 1165 3066 1498 3066 
Q 1824 3066 2102 2902 
Q 2381 2739 2547 2470 
Q 2714 2202 2714 1869 
L 2714 1171 
Q 2714 858 2547 576 
Q 2381 294 2102 124 
Q 1824 -45 1498 -45 
z
M 1498 339 
Q 1722 339 1901 457 
Q 2080 576 2189 768 
Q 2298 960 2298 1171 
L 2298 1869 
Q 2298 2074 2192 2259 
Q 2086 2445 1904 2563 
Q 1722 2682 1498 2682 
Q 1274 2682 1094 2563 
Q 915 2445 806 2259 
Q 698 2074 698 1869 
L 698 1171 
Q 698 960 806 768 
Q 915 576 1097 457 
Q 1280 339 1498 339 
z
" transform="scale(0.015625)"/>
      </defs>
      <use xlink:href="#Dosis-Regular-41"/>
      <use xlink:href="#Dosis-Regular-f1" x="53.799988"/>
      <use xlink:href="#Dosis-Regular-6f" x="103.199982"/>
     </g>
    </g>
   </g>
   <g id="matplotlib.axis_2">
    <g id="ytick_1">
     <g id="line2d_6">
      <defs>
       <path id="m4b1b97c506" d="M 0 0 
L -3.5 0 
" style="stroke: #262626; stroke-width: 0.8"/>
      </defs>
      <g>
       <use xlink:href="#m4b1b97c506" x="57.6" y="307.584" style="fill: #262626; stroke: #262626; stroke-width: 0.8"/>
      </g>
     </g>
     <g id="text_7">
      <!-- 0 -->
      <g style="fill: #262626" transform="translate(42.814687 312.594469) scale(0.14 -0.14)">
       <use xlink:href="#ArialMT-30"/>
      </g>
     </g>
    </g>
    <g id="ytick_2">
     <g id="line2d_7">
      <g>
       <use xlink:href="#m4b1b97c506" x="57.6" y="254.3616" style="fill: #262626; stroke: #262626; stroke-width: 0.8"/>
      </g>
     </g>
     <g id="text_8">
      <!-- 20 -->
      <g style="fill: #262626" transform="translate(35.029375 259.372069) scale(0.14 -0.14)">
       <use xlink:href="#ArialMT-32"/>
       <use xlink:href="#ArialMT-30" x="55.615234"/>
      </g>
     </g>
    </g>
    <g id="ytick_3">
     <g id="line2d_8">
      <g>
       <use xlink:href="#m4b1b97c506" x="57.6" y="201.1392" style="fill: #262626; stroke: #262626; stroke-width: 0.8"/>
      </g>
     </g>
     <g id="text_9">
      <!-- 40 -->
      <g style="fill: #262626" transform="translate(35.029375 206.149669) scale(0.14 -0.14)">
       <defs>
        <path id="ArialMT-34" d="M 2069 0 
L 2069 1097 
L 81 1097 
L 81 1613 
L 2172 4581 
L 2631 4581 
L 2631 1613 
L 3250 1613 
L 3250 1097 
L 2631 1097 
L 2631 0 
L 2069 0 
z
M 2069 1613 
L 2069 3678 
L 634 1613 
L 2069 1613 
z
" transform="scale(0.015625)"/>
       </defs>
       <use xlink:href="#ArialMT-34"/>
       <use xlink:href="#ArialMT-30" x="55.615234"/>
      </g>
     </g>
    </g>
    <g id="ytick_4">
     <g id="line2d_9">
      <g>
       <use xlink:href="#m4b1b97c506" x="57.6" y="147.9168" style="fill: #262626; stroke: #262626; stroke-width: 0.8"/>
      </g>
     </g>
     <g id="text_10">
      <!-- 60 -->
      <g style="fill: #262626" transform="translate(35.029375 152.927269) scale(0.14 -0.14)">
       <defs>
        <path id="ArialMT-36" d="M 3184 3459 
L 2625 3416 
Q 2550 3747 2413 3897 
Q 2184 4138 1850 4138 
Q 1581 4138 1378 3988 
Q 1113 3794 959 3422 
Q 806 3050 800 2363 
Q 1003 2672 1297 2822 
Q 1591 2972 1913 2972 
Q 2475 2972 2870 2558 
Q 3266 2144 3266 1488 
Q 3266 1056 3080 686 
Q 2894 316 2569 119 
Q 2244 -78 1831 -78 
Q 1128 -78 684 439 
Q 241 956 241 2144 
Q 241 3472 731 4075 
Q 1159 4600 1884 4600 
Q 2425 4600 2770 4297 
Q 3116 3994 3184 3459 
z
M 888 1484 
Q 888 1194 1011 928 
Q 1134 663 1356 523 
Q 1578 384 1822 384 
Q 2178 384 2434 671 
Q 2691 959 2691 1453 
Q 2691 1928 2437 2201 
Q 2184 2475 1800 2475 
Q 1419 2475 1153 2201 
Q 888 1928 888 1484 
z
" transform="scale(0.015625)"/>
       </defs>
       <use xlink:href="#ArialMT-36"/>
       <use xlink:href="#ArialMT-30" x="55.615234"/>
      </g>
     </g>
    </g>
    <g id="ytick_5">
     <g id="line2d_10">
      <g>
       <use xlink:href="#m4b1b97c506" x="57.6" y="94.6944" style="fill: #262626; stroke: #262626; stroke-width: 0.8"/>
      </g>
     </g>
     <g id="text_11">
      <!-- 80 -->
      <g style="fill: #262626" transform="translate(35.029375 99.704869) scale(0.14 -0.14)">
       <use xlink:href="#ArialMT-38"/>
       <use xlink:href="#ArialMT-30" x="55.615234"/>
      </g>
     </g>
    </g>
    <g id="ytick_6">
     <g id="line2d_11">
      <g>
       <use xlink:href="#m4b1b97c506" x="57.6" y="41.472" style="fill: #262626; stroke: #262626; stroke-width: 0.8"/>
      </g>
     </g>
     <g id="text_12">
      <!-- 100 -->
      <g style="fill: #262626" transform="translate(27.244062 46.482469) scale(0.14 -0.14)">
       <use xlink:href="#ArialMT-31"/>
       <use xlink:href="#ArialMT-30" x="55.615234"/>
       <use xlink:href="#ArialMT-30" x="111.230469"/>
      </g>
     </g>
    </g>
    <g id="text_13">
     <!-- Número de autores -->
     <g style="fill: #262626" transform="translate(19.995625 225.768) rotate(-90) scale(0.14 -0.14)">
      <defs>
       <path id="Dosis-Regular-4e" d="M 698 0 
Q 614 0 550 41 
Q 486 83 486 166 
L 486 4518 
Q 486 4608 550 4643 
Q 614 4678 698 4678 
Q 774 4678 832 4636 
Q 890 4595 941 4531 
Q 992 4467 1030 4384 
L 2758 979 
L 2758 4525 
Q 2758 4608 2822 4643 
Q 2886 4678 2970 4678 
Q 3046 4678 3113 4643 
Q 3181 4608 3181 4525 
L 3181 166 
Q 3181 83 3113 41 
Q 3046 0 2970 0 
Q 2880 0 2809 77 
Q 2739 154 2688 243 
L 909 3706 
L 909 166 
Q 909 83 841 41 
Q 774 0 698 0 
z
" transform="scale(0.015625)"/>
       <path id="Dosis-Regular-fa" d="M 1594 -45 
Q 1254 -45 979 121 
Q 704 288 537 566 
Q 371 845 371 1158 
L 371 2867 
Q 371 2925 435 2976 
Q 499 3027 582 3027 
Q 666 3027 726 2976 
Q 787 2925 787 2867 
L 787 1158 
Q 787 947 896 761 
Q 1005 576 1184 457 
Q 1363 339 1587 339 
Q 1818 339 1997 454 
Q 2176 570 2281 758 
Q 2387 947 2387 1158 
L 2387 2874 
Q 2387 2938 2451 2982 
Q 2515 3027 2598 3027 
Q 2694 3027 2748 2982 
Q 2803 2938 2803 2874 
L 2803 1158 
Q 2803 832 2640 560 
Q 2477 288 2198 121 
Q 1920 -45 1594 -45 
z
M 1312 3756 
Q 1248 3756 1197 3814 
Q 1146 3872 1146 3936 
Q 1146 4019 1216 4051 
L 1933 4441 
Q 1965 4460 1984 4460 
Q 2054 4460 2096 4402 
Q 2138 4345 2138 4281 
Q 2138 4185 2061 4140 
L 1376 3776 
Q 1363 3769 1344 3762 
Q 1325 3756 1312 3756 
z
" transform="scale(0.015625)"/>
       <path id="Dosis-Regular-6d" d="M 602 0 
Q 518 0 457 51 
Q 397 102 397 166 
L 397 2874 
Q 397 2944 457 2985 
Q 518 3027 602 3027 
Q 685 3027 742 2985 
Q 800 2944 800 2874 
L 800 2579 
Q 909 2765 1123 2915 
Q 1338 3066 1651 3066 
Q 1971 3066 2208 2886 
Q 2445 2707 2560 2426 
Q 2726 2752 2992 2909 
Q 3258 3066 3533 3066 
Q 3808 3066 4054 2925 
Q 4301 2784 4454 2518 
Q 4608 2253 4608 1869 
L 4608 166 
Q 4608 102 4547 51 
Q 4486 0 4397 0 
Q 4314 0 4253 51 
Q 4192 102 4192 166 
L 4192 1869 
Q 4192 2138 4083 2317 
Q 3974 2496 3808 2589 
Q 3642 2682 3462 2682 
Q 3277 2682 3107 2586 
Q 2938 2490 2826 2314 
Q 2714 2138 2714 1894 
L 2714 160 
Q 2714 77 2646 38 
Q 2579 0 2502 0 
Q 2432 0 2365 38 
Q 2298 77 2298 160 
L 2298 1888 
Q 2298 2118 2198 2297 
Q 2099 2477 1932 2579 
Q 1766 2682 1568 2682 
Q 1382 2682 1209 2586 
Q 1037 2490 925 2310 
Q 813 2131 813 1869 
L 813 166 
Q 813 102 752 51 
Q 691 0 602 0 
z
" transform="scale(0.015625)"/>
       <path id="Dosis-Regular-65" d="M 1664 -45 
Q 1261 -45 950 108 
Q 640 262 464 534 
Q 288 806 288 1171 
L 288 1888 
Q 288 2208 454 2477 
Q 621 2746 899 2906 
Q 1178 3066 1510 3066 
Q 1830 3066 2102 2915 
Q 2374 2765 2540 2502 
Q 2707 2240 2707 1901 
Q 2707 1651 2624 1545 
Q 2541 1440 2416 1414 
Q 2291 1389 2150 1389 
L 704 1389 
L 704 1152 
Q 704 768 979 544 
Q 1254 320 1677 320 
Q 1933 320 2073 384 
Q 2214 448 2294 512 
Q 2374 576 2445 576 
Q 2496 576 2537 541 
Q 2579 506 2601 461 
Q 2624 416 2624 378 
Q 2624 307 2509 204 
Q 2394 102 2176 28 
Q 1958 -45 1664 -45 
z
M 704 1696 
L 1984 1696 
Q 2176 1696 2240 1737 
Q 2304 1779 2304 1914 
Q 2304 2118 2205 2304 
Q 2106 2490 1923 2605 
Q 1741 2720 1504 2720 
Q 1286 2720 1104 2614 
Q 922 2509 813 2333 
Q 704 2157 704 1939 
L 704 1696 
z
" transform="scale(0.015625)"/>
       <path id="Dosis-Regular-72" d="M 602 0 
Q 518 0 457 51 
Q 397 102 397 166 
L 397 2874 
Q 397 2944 457 2985 
Q 518 3027 602 3027 
Q 685 3027 742 2985 
Q 800 2944 800 2874 
L 800 2560 
Q 870 2688 992 2803 
Q 1114 2918 1280 2992 
Q 1446 3066 1658 3066 
L 1882 3066 
Q 1952 3066 2000 3011 
Q 2048 2957 2048 2874 
Q 2048 2797 2000 2739 
Q 1952 2682 1882 2682 
L 1658 2682 
Q 1446 2682 1251 2570 
Q 1056 2458 934 2250 
Q 813 2042 813 1747 
L 813 166 
Q 813 102 752 51 
Q 691 0 602 0 
z
" transform="scale(0.015625)"/>
       <path id="Dosis-Regular-20" transform="scale(0.015625)"/>
       <path id="Dosis-Regular-64" d="M 1421 -45 
Q 1120 -45 857 124 
Q 595 294 441 576 
Q 288 858 288 1171 
L 288 1869 
Q 288 2202 441 2470 
Q 595 2739 857 2902 
Q 1120 3066 1434 3066 
Q 1747 3066 1961 2915 
Q 2176 2765 2278 2579 
L 2278 4730 
Q 2278 4800 2342 4841 
Q 2406 4883 2490 4883 
Q 2586 4883 2640 4841 
Q 2694 4800 2694 4730 
L 2694 166 
Q 2694 102 2640 51 
Q 2586 0 2490 0 
Q 2413 0 2355 51 
Q 2298 102 2298 166 
L 2298 448 
Q 2195 250 1955 102 
Q 1715 -45 1421 -45 
z
M 1491 339 
Q 1722 339 1898 457 
Q 2074 576 2176 726 
Q 2278 877 2278 973 
L 2278 1869 
Q 2278 2125 2163 2304 
Q 2048 2483 1869 2582 
Q 1690 2682 1498 2682 
Q 1280 2682 1101 2563 
Q 922 2445 813 2259 
Q 704 2074 704 1869 
L 704 1171 
Q 704 960 813 768 
Q 922 576 1101 457 
Q 1280 339 1491 339 
z
" transform="scale(0.015625)"/>
       <path id="Dosis-Regular-61" d="M 1069 -45 
Q 710 -45 454 163 
Q 198 371 198 800 
Q 198 1152 387 1341 
Q 576 1530 912 1603 
Q 1248 1677 1690 1677 
L 2016 1677 
L 2016 1830 
Q 2016 2035 1942 2236 
Q 1869 2438 1705 2569 
Q 1542 2701 1261 2701 
Q 1050 2701 915 2656 
Q 781 2611 704 2563 
Q 627 2515 576 2515 
Q 499 2515 454 2592 
Q 410 2669 410 2739 
Q 410 2822 541 2896 
Q 672 2970 873 3018 
Q 1075 3066 1274 3066 
Q 1702 3066 1955 2890 
Q 2208 2714 2320 2432 
Q 2432 2150 2432 1830 
L 2432 166 
Q 2432 96 2377 48 
Q 2323 0 2227 0 
Q 2150 0 2092 48 
Q 2035 96 2035 166 
L 2035 448 
Q 1869 262 1632 108 
Q 1395 -45 1069 -45 
z
M 1171 307 
Q 1382 307 1574 416 
Q 1766 525 1891 681 
Q 2016 838 2016 979 
L 2016 1389 
L 1747 1389 
Q 1459 1389 1200 1353 
Q 941 1318 777 1203 
Q 614 1088 614 838 
Q 614 563 777 435 
Q 941 307 1171 307 
z
" transform="scale(0.015625)"/>
       <path id="Dosis-Regular-75" d="M 1594 -45 
Q 1254 -45 979 121 
Q 704 288 537 566 
Q 371 845 371 1158 
L 371 2867 
Q 371 2925 435 2976 
Q 499 3027 582 3027 
Q 666 3027 726 2976 
Q 787 2925 787 2867 
L 787 1158 
Q 787 947 896 761 
Q 1005 576 1184 457 
Q 1363 339 1587 339 
Q 1818 339 1997 454 
Q 2176 570 2281 758 
Q 2387 947 2387 1158 
L 2387 2874 
Q 2387 2938 2451 2982 
Q 2515 3027 2598 3027 
Q 2694 3027 2748 2982 
Q 2803 2938 2803 2874 
L 2803 1158 
Q 2803 832 2640 560 
Q 2477 288 2198 121 
Q 1920 -45 1594 -45 
z
" transform="scale(0.015625)"/>
       <path id="Dosis-Regular-74" d="M 1402 0 
Q 909 0 646 224 
Q 384 448 384 941 
L 384 4314 
Q 384 4384 451 4425 
Q 518 4467 589 4467 
Q 672 4467 736 4425 
Q 800 4384 800 4314 
L 800 3027 
L 1632 3027 
Q 1696 3027 1734 2976 
Q 1773 2925 1773 2854 
Q 1773 2784 1734 2733 
Q 1696 2682 1632 2682 
L 800 2682 
L 800 941 
Q 800 627 934 502 
Q 1069 378 1402 378 
L 1581 378 
Q 1670 378 1718 323 
Q 1766 269 1766 192 
Q 1766 115 1718 57 
Q 1670 0 1581 0 
L 1402 0 
z
" transform="scale(0.015625)"/>
       <path id="Dosis-Regular-73" d="M 1222 -45 
Q 922 -45 698 32 
Q 474 109 346 214 
Q 218 320 218 416 
Q 218 461 237 502 
Q 256 544 291 576 
Q 326 608 365 608 
Q 435 608 521 534 
Q 608 461 765 384 
Q 922 307 1210 307 
Q 1574 307 1721 444 
Q 1869 582 1869 762 
Q 1869 973 1757 1091 
Q 1645 1210 1462 1277 
Q 1280 1344 1078 1398 
Q 877 1453 694 1539 
Q 512 1626 400 1779 
Q 288 1933 288 2195 
Q 288 2400 390 2601 
Q 493 2803 713 2934 
Q 934 3066 1299 3066 
Q 1510 3066 1708 3021 
Q 1907 2976 2032 2902 
Q 2157 2829 2157 2752 
Q 2157 2720 2134 2669 
Q 2112 2618 2073 2576 
Q 2035 2534 1984 2534 
Q 1933 2534 1846 2582 
Q 1760 2630 1625 2672 
Q 1491 2714 1306 2714 
Q 1075 2714 934 2630 
Q 794 2547 730 2435 
Q 666 2323 666 2214 
Q 666 2029 781 1933 
Q 896 1837 1078 1776 
Q 1261 1715 1462 1660 
Q 1664 1606 1846 1510 
Q 2029 1414 2141 1241 
Q 2253 1069 2253 781 
Q 2253 403 1984 179 
Q 1715 -45 1222 -45 
z
" transform="scale(0.015625)"/>
      </defs>
      <use xlink:href="#Dosis-Regular-4e"/>
      <use xlink:href="#Dosis-Regular-fa" x="57.299988"/>
      <use xlink:href="#Dosis-Regular-6d" x="106.899979"/>
      <use xlink:href="#Dosis-Regular-65" x="184.799973"/>
      <use xlink:href="#Dosis-Regular-72" x="230.59996"/>
      <use xlink:href="#Dosis-Regular-6f" x="263.599945"/>
      <use xlink:href="#Dosis-Regular-20" x="310.499939"/>
      <use xlink:href="#Dosis-Regular-64" x="330.499924"/>
      <use xlink:href="#Dosis-Regular-65" x="378.899918"/>
      <use xlink:href="#Dosis-Regular-20" x="424.699905"/>
      <use xlink:href="#Dosis-Regular-61" x="444.69989"/>
      <use xlink:href="#Dosis-Regular-75" x="488.499878"/>
      <use xlink:href="#Dosis-Regular-74" x="538.099869"/>
      <use xlink:href="#Dosis-Regular-6f" x="567.599854"/>
      <use xlink:href="#Dosis-Regular-72" x="614.499847"/>
      <use xlink:href="#Dosis-Regular-65" x="647.499832"/>
      <use xlink:href="#Dosis-Regular-73" x="693.29982"/>
     </g>
    </g>
   </g>
   <g id="PathCollection_1">
    <defs>
     <path id="m0ae119f4fa" d="M 0 3 
C 0.795609 3 1.55874 2.683901 2.12132 2.12132 
C 2.683901 1.55874 3 0.795609 3 0 
C 3 -0.795609 2.683901 -1.55874 2.12132 -2.12132 
C 1.55874 -2.683901 0.795609 -3 0 -3 
C -0.795609 -3 -1.55874 -2.683901 -2.12132 -2.12132 
C -2.683901 -1.55874 -3 -0.795609 -3 0 
C -3 0.795609 -2.683901 1.55874 -2.12132 2.12132 
C -1.55874 2.683901 -0.795609 3 0 3 
z
" style="stroke: #ffffff; stroke-width: 0.48"/>
    </defs>
    <g clip-path="url(#p77ba47b172)">
     <use xlink:href="#m0ae119f4fa" x="281.944615" y="280.9728" style="fill: #009092; stroke: #ffffff; stroke-width: 0.48"/>
     <use xlink:href="#m0ae119f4fa" x="348.54042" y="299.60064" style="fill: #009092; stroke: #ffffff; stroke-width: 0.48"/>
     <use xlink:href="#m0ae119f4fa" x="273.62014" y="267.6672" style="fill: #009092; stroke: #ffffff; stroke-width: 0.48"/>
     <use xlink:href="#m0ae119f4fa" x="90.481678" y="299.60064" style="fill: #009092; stroke: #ffffff; stroke-width: 0.48"/>
     <use xlink:href="#m0ae119f4fa" x="290.269091" y="270.32832" style="fill: #009092; stroke: #ffffff; stroke-width: 0.48"/>
     <use xlink:href="#m0ae119f4fa" x="240.322238" y="299.60064" style="fill: #009092; stroke: #ffffff; stroke-width: 0.48"/>
     <use xlink:href="#m0ae119f4fa" x="231.997762" y="299.60064" style="fill: #009092; stroke: #ffffff; stroke-width: 0.48"/>
     <use xlink:href="#m0ae119f4fa" x="356.864895" y="249.03936" style="fill: #009092; stroke: #ffffff; stroke-width: 0.48"/>
     <use xlink:href="#m0ae119f4fa" x="240.322238" y="296.93952" style="fill: #009092; stroke: #ffffff; stroke-width: 0.48"/>
     <use xlink:href="#m0ae119f4fa" x="256.971189" y="262.34496" style="fill: #009092; stroke: #ffffff; stroke-width: 0.48"/>
     <use xlink:href="#m0ae119f4fa" x="315.242517" y="233.07264" style="fill: #009092; stroke: #ffffff; stroke-width: 0.48"/>
     <use xlink:href="#m0ae119f4fa" x="281.944615" y="288.95616" style="fill: #009092; stroke: #ffffff; stroke-width: 0.48"/>
     <use xlink:href="#m0ae119f4fa" x="248.646713" y="304.92288" style="fill: #009092; stroke: #ffffff; stroke-width: 0.48"/>
     <use xlink:href="#m0ae119f4fa" x="303.331476" y="-1" style="fill: #009092; stroke: #ffffff; stroke-width: 0.48"/>
     <use xlink:href="#m0ae119f4fa" x="334.005864" y="-1" style="fill: #009092; stroke: #ffffff; stroke-width: 0.48"/>
     <use xlink:href="#m0ae119f4fa" x="306.918042" y="299.60064" style="fill: #009092; stroke: #ffffff; stroke-width: 0.48"/>
     <use xlink:href="#m0ae119f4fa" x="356.864895" y="291.61728" style="fill: #009092; stroke: #ffffff; stroke-width: 0.48"/>
     <use xlink:href="#m0ae119f4fa" x="198.69986" y="299.60064" style="fill: #009092; stroke: #ffffff; stroke-width: 0.48"/>
     <use xlink:href="#m0ae119f4fa" x="340.215944" y="251.70048" style="fill: #009092; stroke: #ffffff; stroke-width: 0.48"/>
     <use xlink:href="#m0ae119f4fa" x="215.348811" y="243.71712" style="fill: #009092; stroke: #ffffff; stroke-width: 0.48"/>
     <use xlink:href="#m0ae119f4fa" x="314.866465" y="-1" style="fill: #009092; stroke: #ffffff; stroke-width: 0.48"/>
     <use xlink:href="#m0ae119f4fa" x="315.2011" y="-1" style="fill: #009092; stroke: #ffffff; stroke-width: 0.48"/>
     <use xlink:href="#m0ae119f4fa" x="215.348811" y="254.3616" style="fill: #009092; stroke: #ffffff; stroke-width: 0.48"/>
     <use xlink:href="#m0ae119f4fa" x="323.566993" y="251.70048" style="fill: #009092; stroke: #ffffff; stroke-width: 0.48"/>
     <use xlink:href="#m0ae119f4fa" x="273.62014" y="179.85024" style="fill: #009092; stroke: #ffffff; stroke-width: 0.48"/>
     <use xlink:href="#m0ae119f4fa" x="281.944615" y="291.61728" style="fill: #009092; stroke: #ffffff; stroke-width: 0.48"/>
     <use xlink:href="#m0ae119f4fa" x="198.69986" y="291.61728" style="fill: #009092; stroke: #ffffff; stroke-width: 0.48"/>
     <use xlink:href="#m0ae119f4fa" x="323.566993" y="22.84416" style="fill: #009092; stroke: #ffffff; stroke-width: 0.48"/>
     <use xlink:href="#m0ae119f4fa" x="306.918042" y="257.02272" style="fill: #009092; stroke: #ffffff; stroke-width: 0.48"/>
     <use xlink:href="#m0ae119f4fa" x="207.024336" y="302.26176" style="fill: #009092; stroke: #ffffff; stroke-width: 0.48"/>
     <use xlink:href="#m0ae119f4fa" x="240.322238" y="286.29504" style="fill: #009092; stroke: #ffffff; stroke-width: 0.48"/>
     <use xlink:href="#m0ae119f4fa" x="265.295664" y="291.61728" style="fill: #009092; stroke: #ffffff; stroke-width: 0.48"/>
     <use xlink:href="#m0ae119f4fa" x="240.322238" y="230.41152" style="fill: #009092; stroke: #ffffff; stroke-width: 0.48"/>
     <use xlink:href="#m0ae119f4fa" x="223.673287" y="296.93952" style="fill: #009092; stroke: #ffffff; stroke-width: 0.48"/>
     <use xlink:href="#m0ae119f4fa" x="273.62014" y="296.93952" style="fill: #009092; stroke: #ffffff; stroke-width: 0.48"/>
     <use xlink:href="#m0ae119f4fa" x="273.62014" y="288.95616" style="fill: #009092; stroke: #ffffff; stroke-width: 0.48"/>
     <use xlink:href="#m0ae119f4fa" x="312.901248" y="-1" style="fill: #009092; stroke: #ffffff; stroke-width: 0.48"/>
     <use xlink:href="#m0ae119f4fa" x="313.040518" y="-1" style="fill: #009092; stroke: #ffffff; stroke-width: 0.48"/>
     <use xlink:href="#m0ae119f4fa" x="290.269091" y="251.70048" style="fill: #009092; stroke: #ffffff; stroke-width: 0.48"/>
     <use xlink:href="#m0ae119f4fa" x="290.269091" y="267.6672" style="fill: #009092; stroke: #ffffff; stroke-width: 0.48"/>
     <use xlink:href="#m0ae119f4fa" x="265.295664" y="288.95616" style="fill: #009092; stroke: #ffffff; stroke-width: 0.48"/>
     <use xlink:href="#m0ae119f4fa" x="90.481678" y="304.92288" style="fill: #009092; stroke: #ffffff; stroke-width: 0.48"/>
     <use xlink:href="#m0ae119f4fa" x="298.593566" y="296.93952" style="fill: #009092; stroke: #ffffff; stroke-width: 0.48"/>
     <use xlink:href="#m0ae119f4fa" x="298.593566" y="299.60064" style="fill: #009092; stroke: #ffffff; stroke-width: 0.48"/>
     <use xlink:href="#m0ae119f4fa" x="215.348811" y="299.60064" style="fill: #009092; stroke: #ffffff; stroke-width: 0.48"/>
     <use xlink:href="#m0ae119f4fa" x="265.295664" y="302.26176" style="fill: #009092; stroke: #ffffff; stroke-width: 0.48"/>
     <use xlink:href="#m0ae119f4fa" x="223.673287" y="302.26176" style="fill: #009092; stroke: #ffffff; stroke-width: 0.48"/>
     <use xlink:href="#m0ae119f4fa" x="298.593566" y="286.29504" style="fill: #009092; stroke: #ffffff; stroke-width: 0.48"/>
     <use xlink:href="#m0ae119f4fa" x="340.215944" y="251.70048" style="fill: #009092; stroke: #ffffff; stroke-width: 0.48"/>
     <use xlink:href="#m0ae119f4fa" x="215.348811" y="299.60064" style="fill: #009092; stroke: #ffffff; stroke-width: 0.48"/>
     <use xlink:href="#m0ae119f4fa" x="223.673287" y="222.42816" style="fill: #009092; stroke: #ffffff; stroke-width: 0.48"/>
     <use xlink:href="#m0ae119f4fa" x="252.162061" y="-1" style="fill: #009092; stroke: #ffffff; stroke-width: 0.48"/>
     <use xlink:href="#m0ae119f4fa" x="283.190404" y="-1" style="fill: #009092; stroke: #ffffff; stroke-width: 0.48"/>
     <use xlink:href="#m0ae119f4fa" x="256.971189" y="302.26176" style="fill: #009092; stroke: #ffffff; stroke-width: 0.48"/>
     <use xlink:href="#m0ae119f4fa" x="207.024336" y="243.71712" style="fill: #009092; stroke: #ffffff; stroke-width: 0.48"/>
     <use xlink:href="#m0ae119f4fa" x="319.170638" y="-1" style="fill: #009092; stroke: #ffffff; stroke-width: 0.48"/>
     <use xlink:href="#m0ae119f4fa" x="368.24022" y="-1" style="fill: #009092; stroke: #ffffff; stroke-width: 0.48"/>
     <use xlink:href="#m0ae119f4fa" x="315.242517" y="302.26176" style="fill: #009092; stroke: #ffffff; stroke-width: 0.48"/>
     <use xlink:href="#m0ae119f4fa" x="281.944615" y="280.9728" style="fill: #009092; stroke: #ffffff; stroke-width: 0.48"/>
     <use xlink:href="#m0ae119f4fa" x="223.673287" y="288.95616" style="fill: #009092; stroke: #ffffff; stroke-width: 0.48"/>
     <use xlink:href="#m0ae119f4fa" x="315.242517" y="137.27232" style="fill: #009092; stroke: #ffffff; stroke-width: 0.48"/>
     <use xlink:href="#m0ae119f4fa" x="265.295664" y="302.26176" style="fill: #009092; stroke: #ffffff; stroke-width: 0.48"/>
     <use xlink:href="#m0ae119f4fa" x="198.69986" y="291.61728" style="fill: #009092; stroke: #ffffff; stroke-width: 0.48"/>
     <use xlink:href="#m0ae119f4fa" x="381.838322" y="201.1392" style="fill: #009092; stroke: #ffffff; stroke-width: 0.48"/>
     <use xlink:href="#m0ae119f4fa" x="231.997762" y="249.03936" style="fill: #009092; stroke: #ffffff; stroke-width: 0.48"/>
     <use xlink:href="#m0ae119f4fa" x="323.566993" y="283.63392" style="fill: #009092; stroke: #ffffff; stroke-width: 0.48"/>
     <use xlink:href="#m0ae119f4fa" x="256.971189" y="251.70048" style="fill: #009092; stroke: #ffffff; stroke-width: 0.48"/>
     <use xlink:href="#m0ae119f4fa" x="73.832727" y="304.92288" style="fill: #009092; stroke: #ffffff; stroke-width: 0.48"/>
     <use xlink:href="#m0ae119f4fa" x="198.69986" y="302.26176" style="fill: #009092; stroke: #ffffff; stroke-width: 0.48"/>
     <use xlink:href="#m0ae119f4fa" x="240.322238" y="267.6672" style="fill: #009092; stroke: #ffffff; stroke-width: 0.48"/>
     <use xlink:href="#m0ae119f4fa" x="315.242517" y="187.8336" style="fill: #009092; stroke: #ffffff; stroke-width: 0.48"/>
     <use xlink:href="#m0ae119f4fa" x="198.69986" y="294.2784" style="fill: #009092; stroke: #ffffff; stroke-width: 0.48"/>
     <use xlink:href="#m0ae119f4fa" x="165.401958" y="233.07264" style="fill: #009092; stroke: #ffffff; stroke-width: 0.48"/>
     <use xlink:href="#m0ae119f4fa" x="157.077483" y="296.93952" style="fill: #009092; stroke: #ffffff; stroke-width: 0.48"/>
     <use xlink:href="#m0ae119f4fa" x="207.024336" y="299.60064" style="fill: #009092; stroke: #ffffff; stroke-width: 0.48"/>
     <use xlink:href="#m0ae119f4fa" x="198.69986" y="302.26176" style="fill: #009092; stroke: #ffffff; stroke-width: 0.48"/>
     <use xlink:href="#m0ae119f4fa" x="215.348811" y="302.26176" style="fill: #009092; stroke: #ffffff; stroke-width: 0.48"/>
     <use xlink:href="#m0ae119f4fa" x="223.673287" y="304.92288" style="fill: #009092; stroke: #ffffff; stroke-width: 0.48"/>
     <use xlink:href="#m0ae119f4fa" x="132.104056" y="304.92288" style="fill: #009092; stroke: #ffffff; stroke-width: 0.48"/>
     <use xlink:href="#m0ae119f4fa" x="190.375385" y="302.26176" style="fill: #009092; stroke: #ffffff; stroke-width: 0.48"/>
     <use xlink:href="#m0ae119f4fa" x="198.69986" y="302.26176" style="fill: #009092; stroke: #ffffff; stroke-width: 0.48"/>
     <use xlink:href="#m0ae119f4fa" x="348.54042" y="283.63392" style="fill: #009092; stroke: #ffffff; stroke-width: 0.48"/>
     <use xlink:href="#m0ae119f4fa" x="248.646713" y="304.92288" style="fill: #009092; stroke: #ffffff; stroke-width: 0.48"/>
     <use xlink:href="#m0ae119f4fa" x="315.242517" y="304.92288" style="fill: #009092; stroke: #ffffff; stroke-width: 0.48"/>
     <use xlink:href="#m0ae119f4fa" x="256.971189" y="179.85024" style="fill: #009092; stroke: #ffffff; stroke-width: 0.48"/>
     <use xlink:href="#m0ae119f4fa" x="265.295664" y="257.02272" style="fill: #009092; stroke: #ffffff; stroke-width: 0.48"/>
     <use xlink:href="#m0ae119f4fa" x="306.918042" y="257.02272" style="fill: #009092; stroke: #ffffff; stroke-width: 0.48"/>
     <use xlink:href="#m0ae119f4fa" x="298.593566" y="299.60064" style="fill: #009092; stroke: #ffffff; stroke-width: 0.48"/>
     <use xlink:href="#m0ae119f4fa" x="215.348811" y="304.92288" style="fill: #009092; stroke: #ffffff; stroke-width: 0.48"/>
     <use xlink:href="#m0ae119f4fa" x="290.269091" y="249.03936" style="fill: #009092; stroke: #ffffff; stroke-width: 0.48"/>
     <use xlink:href="#m0ae119f4fa" x="281.944615" y="286.29504" style="fill: #009092; stroke: #ffffff; stroke-width: 0.48"/>
     <use xlink:href="#m0ae119f4fa" x="240.322238" y="286.29504" style="fill: #009092; stroke: #ffffff; stroke-width: 0.48"/>
     <use xlink:href="#m0ae119f4fa" x="82.157203" y="304.92288" style="fill: #009092; stroke: #ffffff; stroke-width: 0.48"/>
     <use xlink:href="#m0ae119f4fa" x="306.918042" y="251.70048" style="fill: #009092; stroke: #ffffff; stroke-width: 0.48"/>
     <use xlink:href="#m0ae119f4fa" x="290.269091" y="249.03936" style="fill: #009092; stroke: #ffffff; stroke-width: 0.48"/>
     <use xlink:href="#m0ae119f4fa" x="297.366817" y="-1" style="fill: #009092; stroke: #ffffff; stroke-width: 0.48"/>
     <use xlink:href="#m0ae119f4fa" x="349.786977" y="-1" style="fill: #009092; stroke: #ffffff; stroke-width: 0.48"/>
     <use xlink:href="#m0ae119f4fa" x="348.54042" y="139.93344" style="fill: #009092; stroke: #ffffff; stroke-width: 0.48"/>
     <use xlink:href="#m0ae119f4fa" x="348.54042" y="134.6112" style="fill: #009092; stroke: #ffffff; stroke-width: 0.48"/>
     <use xlink:href="#m0ae119f4fa" x="298.593566" y="121.3056" style="fill: #009092; stroke: #ffffff; stroke-width: 0.48"/>
     <use xlink:href="#m0ae119f4fa" x="373.513846" y="113.32224" style="fill: #009092; stroke: #ffffff; stroke-width: 0.48"/>
     <use xlink:href="#m0ae119f4fa" x="231.997762" y="296.93952" style="fill: #009092; stroke: #ffffff; stroke-width: 0.48"/>
     <use xlink:href="#m0ae119f4fa" x="365.189371" y="267.6672" style="fill: #009092; stroke: #ffffff; stroke-width: 0.48"/>
     <use xlink:href="#m0ae119f4fa" x="256.971189" y="296.93952" style="fill: #009092; stroke: #ffffff; stroke-width: 0.48"/>
     <use xlink:href="#m0ae119f4fa" x="82.157203" y="302.26176" style="fill: #009092; stroke: #ffffff; stroke-width: 0.48"/>
    </g>
   </g>
   <g id="patch_3">
    <path d="M 57.6 307.584 
L 57.6 41.472 
" style="fill: none; stroke: #262626; stroke-width: 1.65; stroke-linejoin: miter; stroke-linecap: square"/>
   </g>
   <g id="patch_4">
    <path d="M 414.72 307.584 
L 414.72 41.472 
" style="fill: none; stroke: #262626; stroke-width: 1.65; stroke-linejoin: miter; stroke-linecap: square"/>
   </g>
   <g id="patch_5">
    <path d="M 57.6 307.584 
L 414.72 307.584 
" style="fill: none; stroke: #262626; stroke-width: 1.65; stroke-linejoin: miter; stroke-linecap: square"/>
   </g>
   <g id="patch_6">
    <path d="M 57.6 41.472 
L 414.72 41.472 
" style="fill: none; stroke: #262626; stroke-width: 1.65; stroke-linejoin: miter; stroke-linecap: square"/>
   </g>
  </g>
 </g>
 <defs>
  <clipPath id="p77ba47b172">
   <rect x="57.6" y="41.472" width="357.12" height="266.112"/>
  </clipPath>
 </defs>
</svg>
