<?xml version="1.0" encoding="utf-8" standalone="no"?>
<!DOCTYPE svg PUBLIC "-//W3C//DTD SVG 1.1//EN"
  "http://www.w3.org/Graphics/SVG/1.1/DTD/svg11.dtd">
<svg xmlns:xlink="http://www.w3.org/1999/xlink" width="460.8pt" height="345.6pt" viewBox="0 0 460.8 345.6" xmlns="http://www.w3.org/2000/svg" version="1.1">
 <metadata>
  <rdf:RDF xmlns:dc="http://purl.org/dc/elements/1.1/" xmlns:cc="http://creativecommons.org/ns#" xmlns:rdf="http://www.w3.org/1999/02/22-rdf-syntax-ns#">
   <cc:Work>
    <dc:type rdf:resource="http://purl.org/dc/dcmitype/StillImage"/>
    <dc:date>2023-11-18T10:11:11.685879</dc:date>
    <dc:format>image/svg+xml</dc:format>
    <dc:creator>
     <cc:Agent>
      <dc:title>Matplotlib v3.6.2, https://matplotlib.org/</dc:title>
     </cc:Agent>
    </dc:creator>
   </cc:Work>
  </rdf:RDF>
 </metadata>
 <defs>
  <style type="text/css">*{stroke-linejoin: round; stroke-linecap: butt}</style>
 </defs>
 <g id="figure_1">
  <g id="patch_1">
   <path d="M 0 345.6 
L 460.8 345.6 
L 460.8 0 
L 0 0 
z
" style="fill: #ffffff"/>
  </g>
  <g id="axes_1">
   <g id="patch_2">
    <path d="M 57.6 307.584 
L 414.72 307.584 
L 414.72 41.472 
L 57.6 41.472 
z
" style="fill: #ffffff"/>
   </g>
   <g id="matplotlib.axis_1">
    <g id="xtick_1">
     <g id="line2d_1">
      <defs>
       <path id="m511fa99cec" d="M 0 0 
L 0 3.5 
" style="stroke: #262626; stroke-width: 0.8"/>
      </defs>
      <g>
       <use xlink:href="#m511fa99cec" x="65.508252" y="307.584" style="fill: #262626; stroke: #262626; stroke-width: 0.8"/>
      </g>
     </g>
     <g id="text_1">
      <!-- 1980 -->
      <g style="fill: #262626" transform="translate(49.937627 324.604938) scale(0.14 -0.14)">
       <defs>
        <path id="ArialMT-31" d="M 2384 0 
L 1822 0 
L 1822 3584 
Q 1619 3391 1289 3197 
Q 959 3003 697 2906 
L 697 3450 
Q 1169 3672 1522 3987 
Q 1875 4303 2022 4600 
L 2384 4600 
L 2384 0 
z
" transform="scale(0.015625)"/>
        <path id="ArialMT-39" d="M 350 1059 
L 891 1109 
Q 959 728 1153 556 
Q 1347 384 1650 384 
Q 1909 384 2104 503 
Q 2300 622 2425 820 
Q 2550 1019 2634 1356 
Q 2719 1694 2719 2044 
Q 2719 2081 2716 2156 
Q 2547 1888 2255 1720 
Q 1963 1553 1622 1553 
Q 1053 1553 659 1965 
Q 266 2378 266 3053 
Q 266 3750 677 4175 
Q 1088 4600 1706 4600 
Q 2153 4600 2523 4359 
Q 2894 4119 3086 3673 
Q 3278 3228 3278 2384 
Q 3278 1506 3087 986 
Q 2897 466 2520 194 
Q 2144 -78 1638 -78 
Q 1100 -78 759 220 
Q 419 519 350 1059 
z
M 2653 3081 
Q 2653 3566 2395 3850 
Q 2138 4134 1775 4134 
Q 1400 4134 1122 3828 
Q 844 3522 844 3034 
Q 844 2597 1108 2323 
Q 1372 2050 1759 2050 
Q 2150 2050 2401 2323 
Q 2653 2597 2653 3081 
z
" transform="scale(0.015625)"/>
        <path id="ArialMT-38" d="M 1131 2484 
Q 781 2613 612 2850 
Q 444 3088 444 3419 
Q 444 3919 803 4259 
Q 1163 4600 1759 4600 
Q 2359 4600 2725 4251 
Q 3091 3903 3091 3403 
Q 3091 3084 2923 2848 
Q 2756 2613 2416 2484 
Q 2838 2347 3058 2040 
Q 3278 1734 3278 1309 
Q 3278 722 2862 322 
Q 2447 -78 1769 -78 
Q 1091 -78 675 323 
Q 259 725 259 1325 
Q 259 1772 486 2073 
Q 713 2375 1131 2484 
z
M 1019 3438 
Q 1019 3113 1228 2906 
Q 1438 2700 1772 2700 
Q 2097 2700 2305 2904 
Q 2513 3109 2513 3406 
Q 2513 3716 2298 3927 
Q 2084 4138 1766 4138 
Q 1444 4138 1231 3931 
Q 1019 3725 1019 3438 
z
M 838 1322 
Q 838 1081 952 856 
Q 1066 631 1291 507 
Q 1516 384 1775 384 
Q 2178 384 2440 643 
Q 2703 903 2703 1303 
Q 2703 1709 2433 1975 
Q 2163 2241 1756 2241 
Q 1359 2241 1098 1978 
Q 838 1716 838 1322 
z
" transform="scale(0.015625)"/>
        <path id="ArialMT-30" d="M 266 2259 
Q 266 3072 433 3567 
Q 600 4063 929 4331 
Q 1259 4600 1759 4600 
Q 2128 4600 2406 4451 
Q 2684 4303 2865 4023 
Q 3047 3744 3150 3342 
Q 3253 2941 3253 2259 
Q 3253 1453 3087 958 
Q 2922 463 2592 192 
Q 2263 -78 1759 -78 
Q 1097 -78 719 397 
Q 266 969 266 2259 
z
M 844 2259 
Q 844 1131 1108 757 
Q 1372 384 1759 384 
Q 2147 384 2411 759 
Q 2675 1134 2675 2259 
Q 2675 3391 2411 3762 
Q 2147 4134 1753 4134 
Q 1366 4134 1134 3806 
Q 844 3388 844 2259 
z
" transform="scale(0.015625)"/>
       </defs>
       <use xlink:href="#ArialMT-31"/>
       <use xlink:href="#ArialMT-39" x="55.615234"/>
       <use xlink:href="#ArialMT-38" x="111.230469"/>
       <use xlink:href="#ArialMT-30" x="166.845703"/>
      </g>
     </g>
    </g>
    <g id="xtick_2">
     <g id="line2d_2">
      <g>
       <use xlink:href="#m511fa99cec" x="148.753007" y="307.584" style="fill: #262626; stroke: #262626; stroke-width: 0.8"/>
      </g>
     </g>
     <g id="text_2">
      <!-- 1990 -->
      <g style="fill: #262626" transform="translate(133.182382 324.604938) scale(0.14 -0.14)">
       <use xlink:href="#ArialMT-31"/>
       <use xlink:href="#ArialMT-39" x="55.615234"/>
       <use xlink:href="#ArialMT-39" x="111.230469"/>
       <use xlink:href="#ArialMT-30" x="166.845703"/>
      </g>
     </g>
    </g>
    <g id="xtick_3">
     <g id="line2d_3">
      <g>
       <use xlink:href="#m511fa99cec" x="231.997762" y="307.584" style="fill: #262626; stroke: #262626; stroke-width: 0.8"/>
      </g>
     </g>
     <g id="text_3">
      <!-- 2000 -->
      <g style="fill: #262626" transform="translate(216.427137 324.604938) scale(0.14 -0.14)">
       <defs>
        <path id="ArialMT-32" d="M 3222 541 
L 3222 0 
L 194 0 
Q 188 203 259 391 
Q 375 700 629 1000 
Q 884 1300 1366 1694 
Q 2113 2306 2375 2664 
Q 2638 3022 2638 3341 
Q 2638 3675 2398 3904 
Q 2159 4134 1775 4134 
Q 1369 4134 1125 3890 
Q 881 3647 878 3216 
L 300 3275 
Q 359 3922 746 4261 
Q 1134 4600 1788 4600 
Q 2447 4600 2831 4234 
Q 3216 3869 3216 3328 
Q 3216 3053 3103 2787 
Q 2991 2522 2730 2228 
Q 2469 1934 1863 1422 
Q 1356 997 1212 845 
Q 1069 694 975 541 
L 3222 541 
z
" transform="scale(0.015625)"/>
       </defs>
       <use xlink:href="#ArialMT-32"/>
       <use xlink:href="#ArialMT-30" x="55.615234"/>
       <use xlink:href="#ArialMT-30" x="111.230469"/>
       <use xlink:href="#ArialMT-30" x="166.845703"/>
      </g>
     </g>
    </g>
    <g id="xtick_4">
     <g id="line2d_4">
      <g>
       <use xlink:href="#m511fa99cec" x="315.242517" y="307.584" style="fill: #262626; stroke: #262626; stroke-width: 0.8"/>
      </g>
     </g>
     <g id="text_4">
      <!-- 2010 -->
      <g style="fill: #262626" transform="translate(299.671892 324.604938) scale(0.14 -0.14)">
       <use xlink:href="#ArialMT-32"/>
       <use xlink:href="#ArialMT-30" x="55.615234"/>
       <use xlink:href="#ArialMT-31" x="111.230469"/>
       <use xlink:href="#ArialMT-30" x="166.845703"/>
      </g>
     </g>
    </g>
    <g id="xtick_5">
     <g id="line2d_5">
      <g>
       <use xlink:href="#m511fa99cec" x="398.487273" y="307.584" style="fill: #262626; stroke: #262626; stroke-width: 0.8"/>
      </g>
     </g>
     <g id="text_5">
      <!-- 2020 -->
      <g style="fill: #262626" transform="translate(382.916648 324.604938) scale(0.14 -0.14)">
       <use xlink:href="#ArialMT-32"/>
       <use xlink:href="#ArialMT-30" x="55.615234"/>
       <use xlink:href="#ArialMT-32" x="111.230469"/>
       <use xlink:href="#ArialMT-30" x="166.845703"/>
      </g>
     </g>
    </g>
    <g id="text_6">
     <!-- Año -->
     <g style="fill: #262626" transform="translate(221.92625 342.839937) scale(0.16 -0.16)">
      <defs>
       <path id="ArialMT-41" d="M -9 0 
L 1750 4581 
L 2403 4581 
L 4278 0 
L 3588 0 
L 3053 1388 
L 1138 1388 
L 634 0 
L -9 0 
z
M 1313 1881 
L 2866 1881 
L 2388 3150 
Q 2169 3728 2063 4100 
Q 1975 3659 1816 3225 
L 1313 1881 
z
" transform="scale(0.015625)"/>
       <path id="ArialMT-f1" d="M 422 0 
L 422 3319 
L 928 3319 
L 928 2847 
Q 1294 3394 1984 3394 
Q 2284 3394 2536 3286 
Q 2788 3178 2913 3003 
Q 3038 2828 3088 2588 
Q 3119 2431 3119 2041 
L 3119 0 
L 2556 0 
L 2556 2019 
Q 2556 2363 2490 2533 
Q 2425 2703 2258 2804 
Q 2091 2906 1866 2906 
Q 1506 2906 1245 2678 
Q 984 2450 984 1813 
L 984 0 
L 422 0 
z
M 819 3809 
Q 816 4134 997 4328 
Q 1175 4522 1453 4522 
Q 1647 4522 1981 4353 
Q 2166 4259 2275 4259 
Q 2375 4259 2428 4314 
Q 2481 4369 2503 4531 
L 2909 4531 
Q 2900 4175 2729 3997 
Q 2559 3819 2297 3819 
Q 2100 3819 1778 3994 
Q 1569 4106 1472 4106 
Q 1366 4106 1300 4031 
Q 1231 3956 1234 3809 
L 819 3809 
z
" transform="scale(0.015625)"/>
       <path id="ArialMT-6f" d="M 213 1659 
Q 213 2581 725 3025 
Q 1153 3394 1769 3394 
Q 2453 3394 2887 2945 
Q 3322 2497 3322 1706 
Q 3322 1066 3130 698 
Q 2938 331 2570 128 
Q 2203 -75 1769 -75 
Q 1072 -75 642 372 
Q 213 819 213 1659 
z
M 791 1659 
Q 791 1022 1069 705 
Q 1347 388 1769 388 
Q 2188 388 2466 706 
Q 2744 1025 2744 1678 
Q 2744 2294 2464 2611 
Q 2184 2928 1769 2928 
Q 1347 2928 1069 2612 
Q 791 2297 791 1659 
z
" transform="scale(0.015625)"/>
      </defs>
      <use xlink:href="#ArialMT-41"/>
      <use xlink:href="#ArialMT-f1" x="66.699219"/>
      <use xlink:href="#ArialMT-6f" x="122.314453"/>
     </g>
    </g>
   </g>
   <g id="matplotlib.axis_2">
    <g id="ytick_1">
     <g id="line2d_6">
      <defs>
       <path id="m95cd0a6a01" d="M 0 0 
L -3.5 0 
" style="stroke: #262626; stroke-width: 0.8"/>
      </defs>
      <g>
       <use xlink:href="#m95cd0a6a01" x="57.6" y="307.584" style="fill: #262626; stroke: #262626; stroke-width: 0.8"/>
      </g>
     </g>
     <g id="text_7">
      <!-- 0 -->
      <g style="fill: #262626" transform="translate(42.814687 312.594469) scale(0.14 -0.14)">
       <use xlink:href="#ArialMT-30"/>
      </g>
     </g>
    </g>
    <g id="ytick_2">
     <g id="line2d_7">
      <g>
       <use xlink:href="#m95cd0a6a01" x="57.6" y="254.3616" style="fill: #262626; stroke: #262626; stroke-width: 0.8"/>
      </g>
     </g>
     <g id="text_8">
      <!-- 20 -->
      <g style="fill: #262626" transform="translate(35.029375 259.372069) scale(0.14 -0.14)">
       <use xlink:href="#ArialMT-32"/>
       <use xlink:href="#ArialMT-30" x="55.615234"/>
      </g>
     </g>
    </g>
    <g id="ytick_3">
     <g id="line2d_8">
      <g>
       <use xlink:href="#m95cd0a6a01" x="57.6" y="201.1392" style="fill: #262626; stroke: #262626; stroke-width: 0.8"/>
      </g>
     </g>
     <g id="text_9">
      <!-- 40 -->
      <g style="fill: #262626" transform="translate(35.029375 206.149669) scale(0.14 -0.14)">
       <defs>
        <path id="ArialMT-34" d="M 2069 0 
L 2069 1097 
L 81 1097 
L 81 1613 
L 2172 4581 
L 2631 4581 
L 2631 1613 
L 3250 1613 
L 3250 1097 
L 2631 1097 
L 2631 0 
L 2069 0 
z
M 2069 1613 
L 2069 3678 
L 634 1613 
L 2069 1613 
z
" transform="scale(0.015625)"/>
       </defs>
       <use xlink:href="#ArialMT-34"/>
       <use xlink:href="#ArialMT-30" x="55.615234"/>
      </g>
     </g>
    </g>
    <g id="ytick_4">
     <g id="line2d_9">
      <g>
       <use xlink:href="#m95cd0a6a01" x="57.6" y="147.9168" style="fill: #262626; stroke: #262626; stroke-width: 0.8"/>
      </g>
     </g>
     <g id="text_10">
      <!-- 60 -->
      <g style="fill: #262626" transform="translate(35.029375 152.927269) scale(0.14 -0.14)">
       <defs>
        <path id="ArialMT-36" d="M 3184 3459 
L 2625 3416 
Q 2550 3747 2413 3897 
Q 2184 4138 1850 4138 
Q 1581 4138 1378 3988 
Q 1113 3794 959 3422 
Q 806 3050 800 2363 
Q 1003 2672 1297 2822 
Q 1591 2972 1913 2972 
Q 2475 2972 2870 2558 
Q 3266 2144 3266 1488 
Q 3266 1056 3080 686 
Q 2894 316 2569 119 
Q 2244 -78 1831 -78 
Q 1128 -78 684 439 
Q 241 956 241 2144 
Q 241 3472 731 4075 
Q 1159 4600 1884 4600 
Q 2425 4600 2770 4297 
Q 3116 3994 3184 3459 
z
M 888 1484 
Q 888 1194 1011 928 
Q 1134 663 1356 523 
Q 1578 384 1822 384 
Q 2178 384 2434 671 
Q 2691 959 2691 1453 
Q 2691 1928 2437 2201 
Q 2184 2475 1800 2475 
Q 1419 2475 1153 2201 
Q 888 1928 888 1484 
z
" transform="scale(0.015625)"/>
       </defs>
       <use xlink:href="#ArialMT-36"/>
       <use xlink:href="#ArialMT-30" x="55.615234"/>
      </g>
     </g>
    </g>
    <g id="ytick_5">
     <g id="line2d_10">
      <g>
       <use xlink:href="#m95cd0a6a01" x="57.6" y="94.6944" style="fill: #262626; stroke: #262626; stroke-width: 0.8"/>
      </g>
     </g>
     <g id="text_11">
      <!-- 80 -->
      <g style="fill: #262626" transform="translate(35.029375 99.704869) scale(0.14 -0.14)">
       <use xlink:href="#ArialMT-38"/>
       <use xlink:href="#ArialMT-30" x="55.615234"/>
      </g>
     </g>
    </g>
    <g id="ytick_6">
     <g id="line2d_11">
      <g>
       <use xlink:href="#m95cd0a6a01" x="57.6" y="41.472" style="fill: #262626; stroke: #262626; stroke-width: 0.8"/>
      </g>
     </g>
     <g id="text_12">
      <!-- 100 -->
      <g style="fill: #262626" transform="translate(27.244062 46.482469) scale(0.14 -0.14)">
       <use xlink:href="#ArialMT-31"/>
       <use xlink:href="#ArialMT-30" x="55.615234"/>
       <use xlink:href="#ArialMT-30" x="111.230469"/>
      </g>
     </g>
    </g>
    <g id="text_13">
     <!-- Número de autores -->
     <g style="fill: #262626" transform="translate(20.064062 243.003) rotate(-90) scale(0.16 -0.16)">
      <defs>
       <path id="ArialMT-4e" d="M 488 0 
L 488 4581 
L 1109 4581 
L 3516 984 
L 3516 4581 
L 4097 4581 
L 4097 0 
L 3475 0 
L 1069 3600 
L 1069 0 
L 488 0 
z
" transform="scale(0.015625)"/>
       <path id="ArialMT-fa" d="M 2597 0 
L 2597 488 
Q 2209 -75 1544 -75 
Q 1250 -75 995 37 
Q 741 150 617 320 
Q 494 491 444 738 
Q 409 903 409 1263 
L 409 3319 
L 972 3319 
L 972 1478 
Q 972 1038 1006 884 
Q 1059 663 1231 536 
Q 1403 409 1656 409 
Q 1909 409 2131 539 
Q 2353 669 2445 892 
Q 2538 1116 2538 1541 
L 2538 3319 
L 3100 3319 
L 3100 0 
L 2597 0 
z
M 1416 3731 
L 1831 4606 
L 2569 4606 
L 1881 3731 
L 1416 3731 
z
" transform="scale(0.015625)"/>
       <path id="ArialMT-6d" d="M 422 0 
L 422 3319 
L 925 3319 
L 925 2853 
Q 1081 3097 1340 3245 
Q 1600 3394 1931 3394 
Q 2300 3394 2536 3241 
Q 2772 3088 2869 2813 
Q 3263 3394 3894 3394 
Q 4388 3394 4653 3120 
Q 4919 2847 4919 2278 
L 4919 0 
L 4359 0 
L 4359 2091 
Q 4359 2428 4304 2576 
Q 4250 2725 4106 2815 
Q 3963 2906 3769 2906 
Q 3419 2906 3187 2673 
Q 2956 2441 2956 1928 
L 2956 0 
L 2394 0 
L 2394 2156 
Q 2394 2531 2256 2718 
Q 2119 2906 1806 2906 
Q 1569 2906 1367 2781 
Q 1166 2656 1075 2415 
Q 984 2175 984 1722 
L 984 0 
L 422 0 
z
" transform="scale(0.015625)"/>
       <path id="ArialMT-65" d="M 2694 1069 
L 3275 997 
Q 3138 488 2766 206 
Q 2394 -75 1816 -75 
Q 1088 -75 661 373 
Q 234 822 234 1631 
Q 234 2469 665 2931 
Q 1097 3394 1784 3394 
Q 2450 3394 2872 2941 
Q 3294 2488 3294 1666 
Q 3294 1616 3291 1516 
L 816 1516 
Q 847 969 1125 678 
Q 1403 388 1819 388 
Q 2128 388 2347 550 
Q 2566 713 2694 1069 
z
M 847 1978 
L 2700 1978 
Q 2663 2397 2488 2606 
Q 2219 2931 1791 2931 
Q 1403 2931 1139 2672 
Q 875 2413 847 1978 
z
" transform="scale(0.015625)"/>
       <path id="ArialMT-72" d="M 416 0 
L 416 3319 
L 922 3319 
L 922 2816 
Q 1116 3169 1280 3281 
Q 1444 3394 1641 3394 
Q 1925 3394 2219 3213 
L 2025 2691 
Q 1819 2813 1613 2813 
Q 1428 2813 1281 2702 
Q 1134 2591 1072 2394 
Q 978 2094 978 1738 
L 978 0 
L 416 0 
z
" transform="scale(0.015625)"/>
       <path id="ArialMT-20" transform="scale(0.015625)"/>
       <path id="ArialMT-64" d="M 2575 0 
L 2575 419 
Q 2259 -75 1647 -75 
Q 1250 -75 917 144 
Q 584 363 401 755 
Q 219 1147 219 1656 
Q 219 2153 384 2558 
Q 550 2963 881 3178 
Q 1213 3394 1622 3394 
Q 1922 3394 2156 3267 
Q 2391 3141 2538 2938 
L 2538 4581 
L 3097 4581 
L 3097 0 
L 2575 0 
z
M 797 1656 
Q 797 1019 1065 703 
Q 1334 388 1700 388 
Q 2069 388 2326 689 
Q 2584 991 2584 1609 
Q 2584 2291 2321 2609 
Q 2059 2928 1675 2928 
Q 1300 2928 1048 2622 
Q 797 2316 797 1656 
z
" transform="scale(0.015625)"/>
       <path id="ArialMT-61" d="M 2588 409 
Q 2275 144 1986 34 
Q 1697 -75 1366 -75 
Q 819 -75 525 192 
Q 231 459 231 875 
Q 231 1119 342 1320 
Q 453 1522 633 1644 
Q 813 1766 1038 1828 
Q 1203 1872 1538 1913 
Q 2219 1994 2541 2106 
Q 2544 2222 2544 2253 
Q 2544 2597 2384 2738 
Q 2169 2928 1744 2928 
Q 1347 2928 1158 2789 
Q 969 2650 878 2297 
L 328 2372 
Q 403 2725 575 2942 
Q 747 3159 1072 3276 
Q 1397 3394 1825 3394 
Q 2250 3394 2515 3294 
Q 2781 3194 2906 3042 
Q 3031 2891 3081 2659 
Q 3109 2516 3109 2141 
L 3109 1391 
Q 3109 606 3145 398 
Q 3181 191 3288 0 
L 2700 0 
Q 2613 175 2588 409 
z
M 2541 1666 
Q 2234 1541 1622 1453 
Q 1275 1403 1131 1340 
Q 988 1278 909 1158 
Q 831 1038 831 891 
Q 831 666 1001 516 
Q 1172 366 1500 366 
Q 1825 366 2078 508 
Q 2331 650 2450 897 
Q 2541 1088 2541 1459 
L 2541 1666 
z
" transform="scale(0.015625)"/>
       <path id="ArialMT-75" d="M 2597 0 
L 2597 488 
Q 2209 -75 1544 -75 
Q 1250 -75 995 37 
Q 741 150 617 320 
Q 494 491 444 738 
Q 409 903 409 1263 
L 409 3319 
L 972 3319 
L 972 1478 
Q 972 1038 1006 884 
Q 1059 663 1231 536 
Q 1403 409 1656 409 
Q 1909 409 2131 539 
Q 2353 669 2445 892 
Q 2538 1116 2538 1541 
L 2538 3319 
L 3100 3319 
L 3100 0 
L 2597 0 
z
" transform="scale(0.015625)"/>
       <path id="ArialMT-74" d="M 1650 503 
L 1731 6 
Q 1494 -44 1306 -44 
Q 1000 -44 831 53 
Q 663 150 594 308 
Q 525 466 525 972 
L 525 2881 
L 113 2881 
L 113 3319 
L 525 3319 
L 525 4141 
L 1084 4478 
L 1084 3319 
L 1650 3319 
L 1650 2881 
L 1084 2881 
L 1084 941 
Q 1084 700 1114 631 
Q 1144 563 1211 522 
Q 1278 481 1403 481 
Q 1497 481 1650 503 
z
" transform="scale(0.015625)"/>
       <path id="ArialMT-73" d="M 197 991 
L 753 1078 
Q 800 744 1014 566 
Q 1228 388 1613 388 
Q 2000 388 2187 545 
Q 2375 703 2375 916 
Q 2375 1106 2209 1216 
Q 2094 1291 1634 1406 
Q 1016 1563 777 1677 
Q 538 1791 414 1992 
Q 291 2194 291 2438 
Q 291 2659 392 2848 
Q 494 3038 669 3163 
Q 800 3259 1026 3326 
Q 1253 3394 1513 3394 
Q 1903 3394 2198 3281 
Q 2494 3169 2634 2976 
Q 2775 2784 2828 2463 
L 2278 2388 
Q 2241 2644 2061 2787 
Q 1881 2931 1553 2931 
Q 1166 2931 1000 2803 
Q 834 2675 834 2503 
Q 834 2394 903 2306 
Q 972 2216 1119 2156 
Q 1203 2125 1616 2013 
Q 2213 1853 2448 1751 
Q 2684 1650 2818 1456 
Q 2953 1263 2953 975 
Q 2953 694 2789 445 
Q 2625 197 2315 61 
Q 2006 -75 1616 -75 
Q 969 -75 630 194 
Q 291 463 197 991 
z
" transform="scale(0.015625)"/>
      </defs>
      <use xlink:href="#ArialMT-4e"/>
      <use xlink:href="#ArialMT-fa" x="72.216797"/>
      <use xlink:href="#ArialMT-6d" x="127.832031"/>
      <use xlink:href="#ArialMT-65" x="211.132812"/>
      <use xlink:href="#ArialMT-72" x="266.748047"/>
      <use xlink:href="#ArialMT-6f" x="300.048828"/>
      <use xlink:href="#ArialMT-20" x="355.664062"/>
      <use xlink:href="#ArialMT-64" x="383.447266"/>
      <use xlink:href="#ArialMT-65" x="439.0625"/>
      <use xlink:href="#ArialMT-20" x="494.677734"/>
      <use xlink:href="#ArialMT-61" x="522.460938"/>
      <use xlink:href="#ArialMT-75" x="578.076172"/>
      <use xlink:href="#ArialMT-74" x="633.691406"/>
      <use xlink:href="#ArialMT-6f" x="661.474609"/>
      <use xlink:href="#ArialMT-72" x="717.089844"/>
      <use xlink:href="#ArialMT-65" x="750.390625"/>
      <use xlink:href="#ArialMT-73" x="806.005859"/>
     </g>
    </g>
   </g>
   <g id="PathCollection_1">
    <defs>
     <path id="m7800da50d0" d="M 0 3 
C 0.795609 3 1.55874 2.683901 2.12132 2.12132 
C 2.683901 1.55874 3 0.795609 3 0 
C 3 -0.795609 2.683901 -1.55874 2.12132 -2.12132 
C 1.55874 -2.683901 0.795609 -3 0 -3 
C -0.795609 -3 -1.55874 -2.683901 -2.12132 -2.12132 
C -2.683901 -1.55874 -3 -0.795609 -3 0 
C -3 0.795609 -2.683901 1.55874 -2.12132 2.12132 
C -1.55874 2.683901 -0.795609 3 0 3 
z
" style="stroke: #ffffff; stroke-width: 0.48"/>
    </defs>
    <g clip-path="url(#p1c153dd985)">
     <use xlink:href="#m7800da50d0" x="281.944615" y="280.9728" style="fill: #009092; stroke: #ffffff; stroke-width: 0.48"/>
     <use xlink:href="#m7800da50d0" x="348.54042" y="299.60064" style="fill: #009092; stroke: #ffffff; stroke-width: 0.48"/>
     <use xlink:href="#m7800da50d0" x="273.62014" y="267.6672" style="fill: #009092; stroke: #ffffff; stroke-width: 0.48"/>
     <use xlink:href="#m7800da50d0" x="90.481678" y="299.60064" style="fill: #009092; stroke: #ffffff; stroke-width: 0.48"/>
     <use xlink:href="#m7800da50d0" x="290.269091" y="270.32832" style="fill: #009092; stroke: #ffffff; stroke-width: 0.48"/>
     <use xlink:href="#m7800da50d0" x="240.322238" y="299.60064" style="fill: #009092; stroke: #ffffff; stroke-width: 0.48"/>
     <use xlink:href="#m7800da50d0" x="231.997762" y="299.60064" style="fill: #009092; stroke: #ffffff; stroke-width: 0.48"/>
     <use xlink:href="#m7800da50d0" x="356.864895" y="249.03936" style="fill: #009092; stroke: #ffffff; stroke-width: 0.48"/>
     <use xlink:href="#m7800da50d0" x="240.322238" y="296.93952" style="fill: #009092; stroke: #ffffff; stroke-width: 0.48"/>
     <use xlink:href="#m7800da50d0" x="256.971189" y="262.34496" style="fill: #009092; stroke: #ffffff; stroke-width: 0.48"/>
     <use xlink:href="#m7800da50d0" x="315.242517" y="233.07264" style="fill: #009092; stroke: #ffffff; stroke-width: 0.48"/>
     <use xlink:href="#m7800da50d0" x="281.944615" y="288.95616" style="fill: #009092; stroke: #ffffff; stroke-width: 0.48"/>
     <use xlink:href="#m7800da50d0" x="248.646713" y="304.92288" style="fill: #009092; stroke: #ffffff; stroke-width: 0.48"/>
     <use xlink:href="#m7800da50d0" x="303.331476" y="-1" style="fill: #009092; stroke: #ffffff; stroke-width: 0.48"/>
     <use xlink:href="#m7800da50d0" x="334.005864" y="-1" style="fill: #009092; stroke: #ffffff; stroke-width: 0.48"/>
     <use xlink:href="#m7800da50d0" x="306.918042" y="299.60064" style="fill: #009092; stroke: #ffffff; stroke-width: 0.48"/>
     <use xlink:href="#m7800da50d0" x="356.864895" y="291.61728" style="fill: #009092; stroke: #ffffff; stroke-width: 0.48"/>
     <use xlink:href="#m7800da50d0" x="198.69986" y="299.60064" style="fill: #009092; stroke: #ffffff; stroke-width: 0.48"/>
     <use xlink:href="#m7800da50d0" x="340.215944" y="251.70048" style="fill: #009092; stroke: #ffffff; stroke-width: 0.48"/>
     <use xlink:href="#m7800da50d0" x="215.348811" y="243.71712" style="fill: #009092; stroke: #ffffff; stroke-width: 0.48"/>
     <use xlink:href="#m7800da50d0" x="314.866465" y="-1" style="fill: #009092; stroke: #ffffff; stroke-width: 0.48"/>
     <use xlink:href="#m7800da50d0" x="315.2011" y="-1" style="fill: #009092; stroke: #ffffff; stroke-width: 0.48"/>
     <use xlink:href="#m7800da50d0" x="215.348811" y="254.3616" style="fill: #009092; stroke: #ffffff; stroke-width: 0.48"/>
     <use xlink:href="#m7800da50d0" x="323.566993" y="251.70048" style="fill: #009092; stroke: #ffffff; stroke-width: 0.48"/>
     <use xlink:href="#m7800da50d0" x="273.62014" y="179.85024" style="fill: #009092; stroke: #ffffff; stroke-width: 0.48"/>
     <use xlink:href="#m7800da50d0" x="281.944615" y="291.61728" style="fill: #009092; stroke: #ffffff; stroke-width: 0.48"/>
     <use xlink:href="#m7800da50d0" x="198.69986" y="291.61728" style="fill: #009092; stroke: #ffffff; stroke-width: 0.48"/>
     <use xlink:href="#m7800da50d0" x="323.566993" y="22.84416" style="fill: #009092; stroke: #ffffff; stroke-width: 0.48"/>
     <use xlink:href="#m7800da50d0" x="306.918042" y="257.02272" style="fill: #009092; stroke: #ffffff; stroke-width: 0.48"/>
     <use xlink:href="#m7800da50d0" x="207.024336" y="302.26176" style="fill: #009092; stroke: #ffffff; stroke-width: 0.48"/>
     <use xlink:href="#m7800da50d0" x="240.322238" y="286.29504" style="fill: #009092; stroke: #ffffff; stroke-width: 0.48"/>
     <use xlink:href="#m7800da50d0" x="265.295664" y="291.61728" style="fill: #009092; stroke: #ffffff; stroke-width: 0.48"/>
     <use xlink:href="#m7800da50d0" x="240.322238" y="230.41152" style="fill: #009092; stroke: #ffffff; stroke-width: 0.48"/>
     <use xlink:href="#m7800da50d0" x="223.673287" y="296.93952" style="fill: #009092; stroke: #ffffff; stroke-width: 0.48"/>
     <use xlink:href="#m7800da50d0" x="273.62014" y="296.93952" style="fill: #009092; stroke: #ffffff; stroke-width: 0.48"/>
     <use xlink:href="#m7800da50d0" x="273.62014" y="288.95616" style="fill: #009092; stroke: #ffffff; stroke-width: 0.48"/>
     <use xlink:href="#m7800da50d0" x="312.901248" y="-1" style="fill: #009092; stroke: #ffffff; stroke-width: 0.48"/>
     <use xlink:href="#m7800da50d0" x="313.040518" y="-1" style="fill: #009092; stroke: #ffffff; stroke-width: 0.48"/>
     <use xlink:href="#m7800da50d0" x="290.269091" y="251.70048" style="fill: #009092; stroke: #ffffff; stroke-width: 0.48"/>
     <use xlink:href="#m7800da50d0" x="290.269091" y="267.6672" style="fill: #009092; stroke: #ffffff; stroke-width: 0.48"/>
     <use xlink:href="#m7800da50d0" x="265.295664" y="288.95616" style="fill: #009092; stroke: #ffffff; stroke-width: 0.48"/>
     <use xlink:href="#m7800da50d0" x="90.481678" y="304.92288" style="fill: #009092; stroke: #ffffff; stroke-width: 0.48"/>
     <use xlink:href="#m7800da50d0" x="298.593566" y="296.93952" style="fill: #009092; stroke: #ffffff; stroke-width: 0.48"/>
     <use xlink:href="#m7800da50d0" x="298.593566" y="299.60064" style="fill: #009092; stroke: #ffffff; stroke-width: 0.48"/>
     <use xlink:href="#m7800da50d0" x="215.348811" y="299.60064" style="fill: #009092; stroke: #ffffff; stroke-width: 0.48"/>
     <use xlink:href="#m7800da50d0" x="265.295664" y="302.26176" style="fill: #009092; stroke: #ffffff; stroke-width: 0.48"/>
     <use xlink:href="#m7800da50d0" x="223.673287" y="302.26176" style="fill: #009092; stroke: #ffffff; stroke-width: 0.48"/>
     <use xlink:href="#m7800da50d0" x="298.593566" y="286.29504" style="fill: #009092; stroke: #ffffff; stroke-width: 0.48"/>
     <use xlink:href="#m7800da50d0" x="340.215944" y="251.70048" style="fill: #009092; stroke: #ffffff; stroke-width: 0.48"/>
     <use xlink:href="#m7800da50d0" x="215.348811" y="299.60064" style="fill: #009092; stroke: #ffffff; stroke-width: 0.48"/>
     <use xlink:href="#m7800da50d0" x="223.673287" y="222.42816" style="fill: #009092; stroke: #ffffff; stroke-width: 0.48"/>
     <use xlink:href="#m7800da50d0" x="252.162061" y="-1" style="fill: #009092; stroke: #ffffff; stroke-width: 0.48"/>
     <use xlink:href="#m7800da50d0" x="283.190404" y="-1" style="fill: #009092; stroke: #ffffff; stroke-width: 0.48"/>
     <use xlink:href="#m7800da50d0" x="256.971189" y="302.26176" style="fill: #009092; stroke: #ffffff; stroke-width: 0.48"/>
     <use xlink:href="#m7800da50d0" x="207.024336" y="243.71712" style="fill: #009092; stroke: #ffffff; stroke-width: 0.48"/>
     <use xlink:href="#m7800da50d0" x="319.170638" y="-1" style="fill: #009092; stroke: #ffffff; stroke-width: 0.48"/>
     <use xlink:href="#m7800da50d0" x="368.24022" y="-1" style="fill: #009092; stroke: #ffffff; stroke-width: 0.48"/>
     <use xlink:href="#m7800da50d0" x="315.242517" y="302.26176" style="fill: #009092; stroke: #ffffff; stroke-width: 0.48"/>
     <use xlink:href="#m7800da50d0" x="281.944615" y="280.9728" style="fill: #009092; stroke: #ffffff; stroke-width: 0.48"/>
     <use xlink:href="#m7800da50d0" x="223.673287" y="288.95616" style="fill: #009092; stroke: #ffffff; stroke-width: 0.48"/>
     <use xlink:href="#m7800da50d0" x="315.242517" y="137.27232" style="fill: #009092; stroke: #ffffff; stroke-width: 0.48"/>
     <use xlink:href="#m7800da50d0" x="265.295664" y="302.26176" style="fill: #009092; stroke: #ffffff; stroke-width: 0.48"/>
     <use xlink:href="#m7800da50d0" x="198.69986" y="291.61728" style="fill: #009092; stroke: #ffffff; stroke-width: 0.48"/>
     <use xlink:href="#m7800da50d0" x="381.838322" y="201.1392" style="fill: #009092; stroke: #ffffff; stroke-width: 0.48"/>
     <use xlink:href="#m7800da50d0" x="231.997762" y="249.03936" style="fill: #009092; stroke: #ffffff; stroke-width: 0.48"/>
     <use xlink:href="#m7800da50d0" x="323.566993" y="283.63392" style="fill: #009092; stroke: #ffffff; stroke-width: 0.48"/>
     <use xlink:href="#m7800da50d0" x="256.971189" y="251.70048" style="fill: #009092; stroke: #ffffff; stroke-width: 0.48"/>
     <use xlink:href="#m7800da50d0" x="73.832727" y="304.92288" style="fill: #009092; stroke: #ffffff; stroke-width: 0.48"/>
     <use xlink:href="#m7800da50d0" x="198.69986" y="302.26176" style="fill: #009092; stroke: #ffffff; stroke-width: 0.48"/>
     <use xlink:href="#m7800da50d0" x="240.322238" y="267.6672" style="fill: #009092; stroke: #ffffff; stroke-width: 0.48"/>
     <use xlink:href="#m7800da50d0" x="315.242517" y="187.8336" style="fill: #009092; stroke: #ffffff; stroke-width: 0.48"/>
     <use xlink:href="#m7800da50d0" x="198.69986" y="294.2784" style="fill: #009092; stroke: #ffffff; stroke-width: 0.48"/>
     <use xlink:href="#m7800da50d0" x="165.401958" y="233.07264" style="fill: #009092; stroke: #ffffff; stroke-width: 0.48"/>
     <use xlink:href="#m7800da50d0" x="157.077483" y="296.93952" style="fill: #009092; stroke: #ffffff; stroke-width: 0.48"/>
     <use xlink:href="#m7800da50d0" x="207.024336" y="299.60064" style="fill: #009092; stroke: #ffffff; stroke-width: 0.48"/>
     <use xlink:href="#m7800da50d0" x="198.69986" y="302.26176" style="fill: #009092; stroke: #ffffff; stroke-width: 0.48"/>
     <use xlink:href="#m7800da50d0" x="215.348811" y="302.26176" style="fill: #009092; stroke: #ffffff; stroke-width: 0.48"/>
     <use xlink:href="#m7800da50d0" x="223.673287" y="304.92288" style="fill: #009092; stroke: #ffffff; stroke-width: 0.48"/>
     <use xlink:href="#m7800da50d0" x="132.104056" y="304.92288" style="fill: #009092; stroke: #ffffff; stroke-width: 0.48"/>
     <use xlink:href="#m7800da50d0" x="190.375385" y="302.26176" style="fill: #009092; stroke: #ffffff; stroke-width: 0.48"/>
     <use xlink:href="#m7800da50d0" x="198.69986" y="302.26176" style="fill: #009092; stroke: #ffffff; stroke-width: 0.48"/>
     <use xlink:href="#m7800da50d0" x="348.54042" y="283.63392" style="fill: #009092; stroke: #ffffff; stroke-width: 0.48"/>
     <use xlink:href="#m7800da50d0" x="248.646713" y="304.92288" style="fill: #009092; stroke: #ffffff; stroke-width: 0.48"/>
     <use xlink:href="#m7800da50d0" x="315.242517" y="304.92288" style="fill: #009092; stroke: #ffffff; stroke-width: 0.48"/>
     <use xlink:href="#m7800da50d0" x="256.971189" y="179.85024" style="fill: #009092; stroke: #ffffff; stroke-width: 0.48"/>
     <use xlink:href="#m7800da50d0" x="265.295664" y="257.02272" style="fill: #009092; stroke: #ffffff; stroke-width: 0.48"/>
     <use xlink:href="#m7800da50d0" x="306.918042" y="257.02272" style="fill: #009092; stroke: #ffffff; stroke-width: 0.48"/>
     <use xlink:href="#m7800da50d0" x="298.593566" y="299.60064" style="fill: #009092; stroke: #ffffff; stroke-width: 0.48"/>
     <use xlink:href="#m7800da50d0" x="215.348811" y="304.92288" style="fill: #009092; stroke: #ffffff; stroke-width: 0.48"/>
     <use xlink:href="#m7800da50d0" x="290.269091" y="249.03936" style="fill: #009092; stroke: #ffffff; stroke-width: 0.48"/>
     <use xlink:href="#m7800da50d0" x="281.944615" y="286.29504" style="fill: #009092; stroke: #ffffff; stroke-width: 0.48"/>
     <use xlink:href="#m7800da50d0" x="240.322238" y="286.29504" style="fill: #009092; stroke: #ffffff; stroke-width: 0.48"/>
     <use xlink:href="#m7800da50d0" x="82.157203" y="304.92288" style="fill: #009092; stroke: #ffffff; stroke-width: 0.48"/>
     <use xlink:href="#m7800da50d0" x="306.918042" y="251.70048" style="fill: #009092; stroke: #ffffff; stroke-width: 0.48"/>
     <use xlink:href="#m7800da50d0" x="290.269091" y="249.03936" style="fill: #009092; stroke: #ffffff; stroke-width: 0.48"/>
     <use xlink:href="#m7800da50d0" x="297.366817" y="-1" style="fill: #009092; stroke: #ffffff; stroke-width: 0.48"/>
     <use xlink:href="#m7800da50d0" x="349.786977" y="-1" style="fill: #009092; stroke: #ffffff; stroke-width: 0.48"/>
     <use xlink:href="#m7800da50d0" x="348.54042" y="139.93344" style="fill: #009092; stroke: #ffffff; stroke-width: 0.48"/>
     <use xlink:href="#m7800da50d0" x="348.54042" y="134.6112" style="fill: #009092; stroke: #ffffff; stroke-width: 0.48"/>
     <use xlink:href="#m7800da50d0" x="298.593566" y="121.3056" style="fill: #009092; stroke: #ffffff; stroke-width: 0.48"/>
     <use xlink:href="#m7800da50d0" x="373.513846" y="113.32224" style="fill: #009092; stroke: #ffffff; stroke-width: 0.48"/>
     <use xlink:href="#m7800da50d0" x="231.997762" y="296.93952" style="fill: #009092; stroke: #ffffff; stroke-width: 0.48"/>
     <use xlink:href="#m7800da50d0" x="365.189371" y="267.6672" style="fill: #009092; stroke: #ffffff; stroke-width: 0.48"/>
     <use xlink:href="#m7800da50d0" x="256.971189" y="296.93952" style="fill: #009092; stroke: #ffffff; stroke-width: 0.48"/>
     <use xlink:href="#m7800da50d0" x="82.157203" y="302.26176" style="fill: #009092; stroke: #ffffff; stroke-width: 0.48"/>
    </g>
   </g>
   <g id="patch_3">
    <path d="M 57.6 307.584 
L 57.6 41.472 
" style="fill: none; stroke: #262626; stroke-width: 1.65; stroke-linejoin: miter; stroke-linecap: square"/>
   </g>
   <g id="patch_4">
    <path d="M 414.72 307.584 
L 414.72 41.472 
" style="fill: none; stroke: #262626; stroke-width: 1.65; stroke-linejoin: miter; stroke-linecap: square"/>
   </g>
   <g id="patch_5">
    <path d="M 57.6 307.584 
L 414.72 307.584 
" style="fill: none; stroke: #262626; stroke-width: 1.65; stroke-linejoin: miter; stroke-linecap: square"/>
   </g>
   <g id="patch_6">
    <path d="M 57.6 41.472 
L 414.72 41.472 
" style="fill: none; stroke: #262626; stroke-width: 1.65; stroke-linejoin: miter; stroke-linecap: square"/>
   </g>
  </g>
 </g>
 <defs>
  <clipPath id="p1c153dd985">
   <rect x="57.6" y="41.472" width="357.12" height="266.112"/>
  </clipPath>
 </defs>
</svg>
